<svg xmlns="http://www.w3.org/2000/svg" viewBox="0 0 108 108"><path d="M54,108A54,54,0,1,0,0,54,54,54,0,0,0,54,108Z" style="fill:#d7d8ef"/><path d="M87.62,61.26a.71.71,0,0,1-.5-.21.72.72,0,0,1-.22-.51V50.14a.73.73,0,0,1,1.45,0V60.55a.73.73,0,0,1-.73.71Z" style="fill:#21268f"/><path d="M87.62,47a.72.72,0,0,1-.72-.72V44.15a.73.73,0,1,1,1.45,0v2.14a.66.66,0,0,1-.06.27.61.61,0,0,1-.15.23.78.78,0,0,1-.24.16A.87.87,0,0,1,87.62,47Z" style="fill:#21268f"/><path d="M29,36.57H25a.76.76,0,1,1,0-1.51h4a.76.76,0,0,1,0,1.51Z" style="fill:#21268f"/><path d="M27,38.57a.75.75,0,0,1-.75-.75v-4a.75.75,0,0,1,1.5,0v4A.76.76,0,0,1,27,38.57Z" style="fill:#21268f"/><path d="M41.46,82.93a1,1,0,1,1-1,1A1,1,0,0,1,41.46,82.93Z" style="fill:#21268f"/><path d="M35.68,82.93a1,1,0,0,1,0,1.93,1,1,0,1,1,0-1.93Z" style="fill:#21268f"/><path d="M29.89,82.93a1,1,0,1,1-1,1A1,1,0,0,1,29.89,82.93Z" style="fill:#21268f"/><path d="M53.85,26.15,26.74,48.42,53.85,70.7,81,48.42Z" style="fill:#d7d8ef"/><path d="M53.85,71.49a.8.8,0,0,1-.47-.22L26.27,49a.71.71,0,0,1-.21-.27.76.76,0,0,1-.08-.33.89.89,0,0,1,.08-.33.83.83,0,0,1,.21-.28L53.38,25.5a.78.78,0,0,1,1,0L81.53,47.77a.83.83,0,0,1,.21.28.72.72,0,0,1,.07.33.64.64,0,0,1-.07.33.71.71,0,0,1-.21.27L54.42,71.27a.78.78,0,0,1-.26.17A.84.84,0,0,1,53.85,71.49ZM28,48.42,53.85,69.69,79.73,48.42,53.85,27.16Z" style="fill:#21268f"/><path d="M73.14,32.4H34.56V78.29H73.14Z" style="fill:#d7d8ef"/><path d="M62.34,46,49.16,56.79v21.5h24V46Z" style="fill:#d7d8ef"/><path d="M62.34,46,49.16,56.79v21.5h24V46Z" style="fill:#d7d8ef"/><path d="M73.19,79.07H34.61a.83.83,0,0,1-.55-.23.78.78,0,0,1-.23-.55V32.4a.77.77,0,0,1,.78-.76H73.19a.75.75,0,0,1,.55.23.78.78,0,0,1,.23.55V78.31a.73.73,0,0,1-.24.53A.78.78,0,0,1,73.19,79.07ZM35.34,77.52h37V33.21h-37Z" style="fill:#21268f"/><path d="M66.36,39.44H54.19a.76.76,0,0,1-.55-.23.77.77,0,0,1,0-1.1.76.76,0,0,1,.55-.23H66.36a.78.78,0,0,1,0,1.56Z" style="fill:#21268f"/><path d="M50,39.44H41.33a.78.78,0,0,1-.55-.23.77.77,0,0,1,0-1.1.78.78,0,0,1,.55-.23H50a.78.78,0,0,1,0,1.56Z" style="fill:#21268f"/><path d="M66.36,44.66h-8a.83.83,0,0,1-.55-.23.79.79,0,0,1,.55-1.34h8a.75.75,0,0,1,.55.23.79.79,0,0,1-.55,1.34Z" style="fill:#21268f"/><path d="M54.19,44.66H41.33a.83.83,0,0,1-.55-.23.79.79,0,0,1,.55-1.34H54.19a.75.75,0,0,1,.55.23.79.79,0,0,1-.55,1.34Z" style="fill:#21268f"/><path d="M66.36,49.87H52.11a.79.79,0,0,1-.56-.23.81.81,0,0,1-.23-.55.83.83,0,0,1,.23-.56.82.82,0,0,1,.56-.22H66.36a.77.77,0,0,1,.78.78.76.76,0,0,1-.23.55A.75.75,0,0,1,66.36,49.87Z" style="fill:#21268f"/><path d="M47.94,49.87H41.33a.78.78,0,0,1-.55-.23.76.76,0,0,1-.23-.55.79.79,0,0,1,.23-.56.82.82,0,0,1,.55-.22h6.61a.82.82,0,0,1,.55.22.83.83,0,0,1,.23.56.81.81,0,0,1-.23.55A.78.78,0,0,1,47.94,49.87Z" style="fill:#21268f"/><path d="M66.36,55.08h-7a.79.79,0,0,1-.79-.78.81.81,0,0,1,.23-.55.79.79,0,0,1,.56-.23h7a.75.75,0,0,1,.55.23.76.76,0,0,1,.23.55.79.79,0,0,1-.78.78Z" style="fill:#21268f"/><path d="M55.23,55.08H41.33a.78.78,0,0,1-.55-.23.75.75,0,0,1-.23-.55.76.76,0,0,1,.23-.55.78.78,0,0,1,.55-.23h13.9a.79.79,0,0,1,.56.23.81.81,0,0,1,.23.55.79.79,0,0,1-.79.78Z" style="fill:#21268f"/><path d="M60.8,60.3H46.89A.78.78,0,0,1,46.34,59a.83.83,0,0,1,.55-.23H60.8a.78.78,0,0,1,.56,1.34A.79.79,0,0,1,60.8,60.3Z" style="fill:#21268f"/><path d="M26.74,48.42V78.29L44.9,63.35Z" style="fill:#d7d8ef"/><path d="M62.79,63.35,81,78.29V48.42Z" style="fill:#d7d8ef"/><path d="M53.85,70.7l-9-7.35L26.74,78.29H81L62.79,63.35Z" style="fill:#d7d8ef"/><path d="M32,56.8V74l10.46-8.59Z" style="fill:#d7d8ef"/><path d="M32,56.8V74l10.46-8.59Z" style="fill:#d7d8ef"/><path d="M71.1,65.12,81,73.23V57Z" style="fill:#d7d8ef"/><path d="M71.1,65.12,81,73.23V57Z" style="fill:#d7d8ef"/><path d="M26.74,79.07A.69.69,0,0,1,26.4,79a.79.79,0,0,1-.32-.28.76.76,0,0,1-.13-.41V48.42a.83.83,0,0,1,.45-.7.8.8,0,0,1,.43-.07.71.71,0,0,1,.41.17L45.4,62.75a.79.79,0,0,1,.21.27.75.75,0,0,1,.07.33.8.8,0,0,1-.07.34.9.9,0,0,1-.21.27L27.24,78.88A.78.78,0,0,1,26.74,79.07Zm.78-29V76.63L43.67,63.35Z" style="fill:#21268f"/><path d="M68,67.61,56.56,77l-8-6.55-9.53,7.85H81Z" style="fill:#d7d8ef"/><path d="M68,67.61,56.56,77l-8-6.55-9.53,7.85H81Z" style="fill:#d7d8ef"/><path d="M81,79.07a.78.78,0,0,1-.5-.19L62.29,64a1.05,1.05,0,0,1-.2-.27.81.81,0,0,1-.08-.34.76.76,0,0,1,.08-.33.9.9,0,0,1,.2-.27l18.2-14.94a.71.71,0,0,1,.4-.17.84.84,0,0,1,.44.07.74.74,0,0,1,.32.29.73.73,0,0,1,.12.41V78.29a.75.75,0,0,1-.12.41.79.79,0,0,1-.32.28A.81.81,0,0,1,81,79.07ZM64,63.35,80.18,76.63V50.08Z" style="fill:#21268f"/><path d="M81,79.07H26.74a.77.77,0,0,1-.46-.15.74.74,0,0,1-.28-.37.76.76,0,0,1,0-.47.72.72,0,0,1,.26-.4L44.4,62.75a.78.78,0,0,1,1,0l8.45,6.94,8.45-6.94a.75.75,0,0,1,.52-.2.77.77,0,0,1,.52.2L81.54,77.68a.72.72,0,0,1,.26.4.76.76,0,0,1,0,.47.83.83,0,0,1-.32.4A.86.86,0,0,1,81,79.07Zm-52-1.55H78.78l-16-13.16-8.44,7a.79.79,0,0,1-1,0l-8.44-7Z" style="fill:#21268f"/><path d="M52.15,84.78h-4a.75.75,0,0,1,0-1.5h4a.75.75,0,1,1,0,1.5Z" style="fill:#21268f"/><path d="M50.15,86.78A.75.75,0,0,1,49.4,86V82a.75.75,0,0,1,1.5,0v4A.74.74,0,0,1,50.15,86.78Z" style="fill:#21268f"/></svg>